<svg width="256" height="158" viewBox="0 0 256 158" fill="none" xmlns="http://www.w3.org/2000/svg">
<rect x="49.5493" width="157.896" height="153.241" fill="black"/>
<path d="M146.814 80.568C146.558 80.632 146.174 80.984 145.662 81.624C145.214 82.264 144.894 82.936 144.702 83.64C144.382 84.664 144.478 85.496 144.99 86.136C146.334 87.736 148.062 89.624 150.174 91.8C152.286 93.912 154.398 95.928 156.51 97.848C158.686 99.768 160.542 101.24 162.078 102.264C160.926 105.336 159.102 107.8 156.606 109.656C154.174 111.448 151.454 112.312 148.446 112.248C145.438 112.184 142.494 110.84 139.614 108.216C139.23 107.832 138.494 107 137.406 105.72C136.318 104.376 135.07 102.808 133.662 101.016C132.254 99.224 130.846 97.432 129.438 95.64C128.03 93.848 126.814 92.28 125.79 90.936C124.766 89.592 124.126 88.76 123.87 88.44C122.654 86.84 121.502 86.488 120.414 87.384C119.326 88.28 118.654 90.136 118.398 92.952C118.27 94.616 118.27 96.536 118.398 98.712C118.59 100.824 118.846 102.712 119.166 104.376C119.55 106.04 119.934 107.032 120.318 107.352C118.974 108.376 117.31 109.336 115.326 110.232C113.342 111.128 111.07 111.672 108.51 111.864C107.55 111.928 106.43 111.672 105.15 111.096C103.87 110.52 102.75 109.592 101.79 108.312C100.894 106.968 100.414 105.304 100.35 103.32C100.35 102.808 100.318 101.464 100.254 99.288C100.254 97.112 100.222 94.456 100.158 91.32C100.158 88.12 100.158 84.824 100.158 81.432C100.158 78.04 100.126 74.84 100.062 71.832C100.062 68.824 100.062 66.392 100.062 64.536C100.062 62.68 100.062 61.752 100.062 61.752C100.062 57.976 99.9661 54.84 99.7741 52.344C99.5821 49.784 98.8141 47.832 97.4701 46.488C96.2541 45.272 95.3261 43.512 94.6861 41.208C94.1101 38.904 93.8541 36.728 93.9181 34.68C94.1741 34.744 94.9421 34.84 96.2221 34.968C97.5021 35.032 98.7501 35.128 99.9661 35.256C100.798 35.256 101.982 35.256 103.518 35.256C105.118 35.192 106.814 35.128 108.606 35.064C110.398 35 112.062 34.968 113.598 34.968C115.134 34.904 116.286 34.84 117.054 34.776C117.63 34.776 118.686 34.776 120.222 34.776C121.822 34.712 123.678 34.68 125.79 34.68C127.902 34.68 130.046 34.712 132.222 34.776C134.398 34.776 136.414 34.84 138.27 34.968C140.126 35.096 141.566 35.256 142.59 35.448C146.814 36.216 150.078 37.624 152.382 39.672C154.686 41.72 156.318 44.184 157.278 47.064C158.302 49.944 158.91 53.08 159.102 56.472C159.23 59.352 158.91 62.36 158.142 65.496C157.374 68.632 156.062 71.544 154.206 74.232C152.35 76.92 149.886 79.032 146.814 80.568ZM118.59 59.928C118.59 61.976 119.07 63.512 120.03 64.536C120.99 65.496 121.886 66.072 122.718 66.264C123.87 66.52 125.342 66.552 127.134 66.36C128.926 66.104 130.718 65.656 132.51 65.016C134.302 64.312 135.806 63.416 137.022 62.328C138.302 61.24 138.942 59.992 138.942 58.584C138.942 56.728 138.174 55.32 136.638 54.36C135.102 53.336 133.15 52.696 130.782 52.44C128.478 52.184 126.174 52.248 123.87 52.632C122.078 52.888 120.734 53.688 119.838 55.032C118.942 56.376 118.526 58.008 118.59 59.928Z" fill="#9C4040"/>
</svg>
